<?xml version="1.0" encoding="UTF-8" standalone="no"?><!DOCTYPE svg PUBLIC "-//W3C//DTD SVG 1.1//EN" "http://www.w3.org/Graphics/SVG/1.1/DTD/svg11.dtd"><svg width="100%" height="100%" viewBox="0 0 4500 4375" version="1.1" xmlns="http://www.w3.org/2000/svg" xmlns:xlink="http://www.w3.org/1999/xlink" xml:space="preserve" xmlns:serif="http://www.serif.com/" style="fill-rule:evenodd;clip-rule:evenodd;stroke-linejoin:round;stroke-miterlimit:2;"><rect id="emblem" x="0" y="0" width="4500" height="4375" style="fill:none;"/><g id="emblem1" serif:id="emblem"><g id="kayak-emblem" serif:id="kayak emblem"><path d="M1832.3,2052.63c-24.599,-0 -48.166,-9.887 -65.402,-27.438c-17.236,-17.552 -26.695,-41.294 -26.249,-65.889c2.081,-112.555 5.885,-217.858 11.215,-310.596c0.814,-14.161 4,-32.593 16.806,-48.735c2.707,-32.251 11.249,-134.213 15.063,-152.434c3.518,-16.809 6.724,-22.487 27.147,-26.281c1.509,-166.063 40.168,-469.162 91.308,-602.986c5.625,-14.718 14.175,-17.66 31.646,-17.673c16.847,-119.347 123.719,-327.067 208.611,-477.478c21.136,-37.304 62.505,-60.622 107.554,-60.622c45.048,0 86.418,23.318 107.553,60.622c84.893,150.411 191.765,358.131 208.612,477.478c17.471,0.013 26.021,2.955 31.646,17.673c51.14,133.824 89.799,436.923 91.308,602.986c20.423,3.794 23.629,9.472 27.147,26.281c3.814,18.221 12.356,120.183 15.063,152.434c12.806,16.142 15.992,34.574 16.806,48.735c5.33,92.738 9.134,198.041 11.21,310.596c0.445,24.594 -9.013,48.335 -26.248,65.885c-17.235,17.55 -40.801,27.436 -65.398,27.436c-11.29,0.006 -22.728,0.006 -33.755,0.006c-43.467,-0 -80.957,-30.527 -89.765,-73.091c-44.696,-216.145 -159.636,-369.945 -294.179,-369.945c-134.543,0 -249.483,153.8 -294.479,369.883c-8.779,42.422 -46.144,72.847 -89.465,72.847c-11.027,0.306 -22.465,0.306 -33.755,0.306Zm834.447,269.736c24.649,0 48.26,9.927 65.503,27.54c17.243,17.614 26.667,41.43 26.143,66.073c-2.066,94.087 -5.305,188.439 -9.811,280.644c-1.821,37.27 -10.353,56.173 -18.271,67.174c1.547,18.429 -6.878,125.041 -13.335,146.651c-6.457,21.61 -9.611,27.905 -26.614,31.832c-3.588,103.152 -52.8,465.98 -59.275,494.662c-7.405,32.799 -21.738,88.705 -33.514,108.663c-3.793,6.428 -8.261,16.293 -30.894,20.492c-19.992,100.664 -83.253,269.073 -159.431,401.708c-17.177,29.908 -34.604,59.26 -51.293,86.787c-21.62,35.787 -62.093,57.906 -105.956,57.906c-43.863,-0 -84.336,-22.119 -105.955,-57.906c-16.69,-27.527 -34.117,-56.879 -51.294,-86.787c-76.178,-132.635 -139.439,-301.044 -159.431,-401.708c-22.633,-4.199 -27.101,-14.064 -30.894,-20.492c-11.776,-19.958 -26.109,-75.864 -33.514,-108.663c-6.475,-28.682 -55.687,-391.51 -59.275,-494.662c-17.003,-3.927 -20.157,-10.222 -26.614,-31.832c-6.457,-21.61 -14.882,-128.222 -13.335,-146.651c-7.918,-11.001 -16.45,-29.904 -18.271,-67.174c-4.506,-92.205 -7.745,-186.557 -9.808,-280.644c-0.523,-24.642 8.9,-48.457 26.143,-66.07c17.242,-17.613 40.852,-27.539 65.5,-27.539c11.796,-0.004 23.754,-0.004 35.244,-0.004c43.054,0 80.306,29.964 89.535,72.018c46.169,210.707 159.579,359.624 291.969,359.624c132.39,0 245.8,-148.917 292.266,-359.559c9.198,-41.914 46.327,-71.778 89.238,-71.778c11.49,-0.305 23.448,-0.305 35.244,-0.305Zm-511.306,-1389.01l-58.106,286.313c-7.754,38.208 -1.449,77.587 17.067,106.593c18.515,29.006 47.143,44.351 77.491,41.538l116.212,-10.774c30.348,-2.813 58.976,-23.467 77.491,-55.906c18.516,-32.439 24.821,-72.987 17.067,-109.757l-58.106,-275.539c-11.343,-53.786 -50.167,-88.386 -94.558,-84.271c-44.391,4.116 -83.215,45.914 -94.558,101.803Zm189.116,2508.29l58.106,-286.313c7.754,-38.208 1.449,-77.587 -17.067,-106.593c-18.515,-29.006 -47.143,-44.351 -77.491,-41.538l-116.212,10.774c-30.348,2.813 -58.976,23.467 -77.491,55.906c-18.516,32.439 -24.821,72.987 -17.067,109.757l58.106,275.539c11.343,53.786 50.167,88.386 94.558,84.271c44.391,-4.116 83.215,-45.914 94.558,-101.803Z" style="fill:#eab534;"/><path d="M3195.34,2231.01l-1890.68,-0c-64.501,-0 -126.359,3.69 -171.968,10.258c-45.609,6.568 -96.854,42.972 -142.462,49.54c-45.609,6.568 -107.467,10.258 -171.967,10.258l-222.321,-0c-70.274,-0 -127.242,-50.845 -127.242,-113.562c0,-62.717 56.968,-113.562 127.242,-113.562l222.321,0c64.5,0 126.358,3.69 171.967,10.258c45.608,6.568 96.853,42.972 142.462,49.54c45.609,6.568 107.467,10.258 171.968,10.258l1890.68,0c64.501,0 126.359,-3.69 171.968,-10.258c45.609,-6.568 96.854,-42.972 142.462,-49.54c45.609,-6.568 107.467,-10.258 171.967,-10.258l222.321,0c70.274,0 127.242,50.845 127.242,113.562c-0,62.717 -56.968,113.562 -127.242,113.562l-222.321,-0c-64.5,-0 -126.358,-3.69 -171.967,-10.258c-45.608,-6.568 -96.853,-42.972 -142.462,-49.54c-45.609,-6.568 -107.467,-10.258 -171.968,-10.258Z" style="fill:#eab534;"/></g></g></svg>