<?xml version="1.0" encoding="UTF-8" standalone="no"?>
<!DOCTYPE svg PUBLIC "-//W3C//DTD SVG 1.1//EN" "http://www.w3.org/Graphics/SVG/1.1/DTD/svg11.dtd">
<svg width="100%" height="100%" viewBox="0 0 1080 1050" version="1.1" xmlns="http://www.w3.org/2000/svg" xmlns:xlink="http://www.w3.org/1999/xlink" xml:space="preserve" xmlns:serif="http://www.serif.com/" style="fill-rule:evenodd;clip-rule:evenodd;stroke-linejoin:round;stroke-miterlimit:2;">
    <g transform="matrix(1,0,0,1,-13803,-1101)">
        <g id="logotype" transform="matrix(1,0,0,1,1312,6.0668e-14)">
            <rect x="12491" y="1101" width="1080" height="1050" style="fill:none;"/>
            <g transform="matrix(0.50082,0,0,0.50082,6290.28,599.305)">
                <g transform="matrix(2.12314,0,-0.48463,2.09917,12534.2,954.032)">
                    <path d="M307.72,254.78C307.719,254.785 307.717,254.791 307.716,254.796C307.475,255.742 308.05,256.718 308.991,256.958C308.994,256.959 308.997,256.959 309,256.96C319.73,259.63 329.63,263.06 339.76,268.27C362.01,279.74 375.18,301.14 376.04,325.99C376.433,337.523 375.08,349.95 371.98,363.27C366.873,385.21 357.177,404.633 342.89,421.54C327.08,440.25 305.46,453.9 281.97,463.48C254.08,474.85 223.16,481.63 192.77,480.81C174.41,480.32 155.05,475.94 140.97,464.29C129.46,454.77 123.05,440.22 121.25,425.25C119.91,414.09 120.63,402.383 123.41,390.13C126.32,377.3 130.68,363.52 133.57,351.69C140.43,323.717 144.177,295.573 144.81,267.26C145.15,252.28 143.843,238.217 140.89,225.07C138.85,215.983 136.647,207.613 134.28,199.96C131.64,191.43 126.48,178.01 123.43,166.08C115.91,136.72 139.92,116.53 167.25,115.74C199.21,114.81 237.27,110.31 263.75,108.38C271.69,107.807 282.437,107.76 295.99,108.24C324.75,109.27 352.16,117.08 366.07,144.44C375.53,163.04 376.79,184.34 367.66,203.3C362.21,214.62 355.79,224.21 345.98,231.47C334.84,239.72 318.35,247.8 309.99,252.47C308.69,253.203 307.933,253.973 307.72,254.78ZM215.9,224.17C216.62,242.33 234.88,244.89 248.07,238.56C267.27,229.33 282,206.53 283.05,185.51C283.4,178.37 281.89,170.58 276.7,165.66C273.847,162.947 270.963,161.107 268.05,160.14C252.39,154.96 239.31,162 230.74,175.24C221.65,189.27 215.23,207.18 215.9,224.17ZM279.39,367.19C298.76,344.79 296.68,311.65 272.38,293.63C266.97,289.61 258.05,286.33 251.08,287.11C232.36,289.22 220.74,305.44 217.02,322.57C214.867,332.457 214.353,342.78 215.48,353.54C217.19,369.91 225.14,383.07 242.52,385.65C256.69,387.75 270.6,377.34 279.39,367.19Z" style="fill:rgb(130,196,216);fill-rule:nonzero;"/>
                </g>
                <g transform="matrix(1.94679,-6.92509e-16,0.465824,1.98835,12139.1,195.87)">
                    <path d="M808.01,643C805.3,649.45 805.04,655.64 810.94,660.26C816.68,664.74 822.94,668.05 829.72,670.19C833.753,671.463 836.49,672.56 837.93,673.48C850.03,681.18 852.21,692.76 853.35,706.25C854.597,721.07 855.31,729.153 855.49,730.5C856.59,738.7 858.53,747.18 864.44,752.73C870.987,758.883 878.473,760.537 886.9,757.69C896.61,754.41 905.75,745.61 916.27,754.43C924.15,761.05 925.28,768.82 925.78,779.25C926.67,797.71 923.43,815.96 917.15,832.47C910.997,848.683 900.93,862.483 886.95,873.87C873.02,885.22 852.53,889.67 835.49,883.74C826.83,880.727 819.507,876.713 813.52,871.7C799.81,860.2 792.07,840.2 789.16,822.28C788,815.167 787.26,808.49 786.94,802.25C786.06,785.283 785.81,763.617 786.19,737.25C786.317,728.45 785.23,720.327 782.93,712.88C781.38,707.9 776.86,703.88 771.42,702.38C765.09,700.64 757.11,700.14 751.41,703.52C743.14,708.44 740.15,722.13 739.39,730.9C738.257,744.067 739.073,756.573 741.84,768.42C745.82,785.42 751.55,797.77 760.08,819.36C762.147,824.573 763.67,831.257 764.65,839.41C766.56,855.22 762.93,868.82 749.78,877.75C746.98,879.657 742.51,881.847 736.37,884.32C729.69,887.013 723.153,888.5 716.76,888.78C709.087,889.107 700.833,889.033 692,888.56C680.907,887.967 670.17,885.613 659.79,881.5C651.34,878.16 644.41,873.6 639.48,866.27C633.247,856.99 631.107,846.737 633.06,835.51C634.2,828.943 636.283,821.953 639.31,814.54C640.91,810.6 645.067,800.683 651.78,784.79C657.627,770.93 662.393,756.703 666.08,742.11C670.38,725.077 672.943,707.457 673.77,689.25C675.077,660.697 674.533,633.35 672.14,607.21C671.647,601.85 670.46,595.053 668.58,586.82C665.96,575.36 660.67,559.75 657.45,550.04C654.99,542.64 653.723,536.907 653.65,532.84C653.24,510.76 673.79,500.21 692.95,497.1C695.577,496.673 700.787,496.233 708.58,495.78C717.86,495.24 727.187,495.097 736.56,495.35C740.767,495.47 744.8,496.21 748.66,497.57C768.81,504.69 771.06,523.33 764.51,541.31C760.737,551.663 756.187,563.6 750.86,577.12C749.833,579.713 748.393,584.257 746.54,590.75C743.4,601.723 742.023,612.723 742.41,623.75C742.79,634.61 753.43,638.7 762.36,634.6C763.973,633.853 766.1,631.977 768.74,628.97C775.7,621.05 779.26,612.09 783.19,601.7C793.18,575.3 800.62,554.05 812.8,532.3C821.75,516.31 834.36,503.76 851.91,498.72C862.68,495.62 875.47,495.76 886.68,497.81C896.23,499.55 908.17,504.7 914.18,512.36C925.37,526.58 923.2,547.88 912.44,561.89C905.18,571.35 892.16,575.06 881,577.79C877.053,578.757 873.723,579.79 871.01,580.89C856.803,586.623 845.333,593.95 836.6,602.87C825.06,614.66 814.21,628.28 808.01,643Z" style="fill:rgb(130,196,216);fill-rule:nonzero;"/>
                </g>
                <g transform="matrix(2.08359,6.88809e-17,-0.346709,1.96628,12600.6,1192.28)">
                    <path d="M742.81,623.54C742.76,632.15 748.2,634.14 755.75,633.35C761.077,632.783 765.31,631.307 768.45,628.92C777.66,621.91 782.04,609.94 785.34,599.81C792.32,578.37 798.02,560.58 807.51,541.74C814.74,527.36 822.74,514.96 835.37,506.26C845.817,499.067 856.893,494.457 868.6,492.43C874.48,491.41 879.74,491.03 885.67,492.15C906.01,495.99 922.52,507.82 924.74,529.75C925.68,539.12 923.59,549.57 918.6,557.62C912.91,566.78 902.92,574.3 892.01,576.5C888.62,577.18 883.04,578.5 878.9,579.89C860.37,586.12 842.46,595.41 828.95,608.96C821.82,616.11 797.15,643.91 804.58,654.48C806.227,656.813 808.287,658.663 810.76,660.03C819.94,665.08 827.41,667.2 840.69,671.55C843.903,672.603 847.603,674.393 851.79,676.92C860.33,682.07 861.05,688.19 861.36,697.15C861.42,698.817 861.747,706.21 862.34,719.33C862.613,725.363 863.483,730.6 864.95,735.04C866.523,739.78 869.543,743.08 874.01,744.94C877.16,746.26 882.7,748.27 886.34,747.09C890.49,745.74 894.86,741.59 898.86,740.42C902.88,739.24 907.57,739.02 911.16,741.87C919.23,748.28 923.52,758.19 924.92,768.28C929.9,804.32 919.83,845.37 891.47,870.44C871.78,887.83 846.35,891.54 822.91,878.04C815.163,873.58 809.093,867.75 804.7,860.55C799.507,852.05 795.72,843.087 793.34,833.66C787.59,810.84 788.27,786.09 789.37,762.75C789.843,752.717 789.84,743.113 789.36,733.94C788.92,725.58 787.153,718.007 784.06,711.22C780.32,703 767.6,696.72 759.02,696.53C752.09,696.37 748.71,699.61 745.94,706.01C741.02,717.343 738.823,728.67 739.35,739.99C739.597,745.243 740.563,751.42 742.25,758.52C746.01,774.3 750.85,785.33 759.09,806.19C760.017,808.55 761.563,813.497 763.73,821.03C767.87,835.44 767.62,855.04 759.66,867.8C745.78,890.09 713.32,892.93 690.38,887.86C680.62,885.71 670.37,880.91 667.62,870.41C666.11,864.62 667.62,859.43 669.89,852.01C675.81,832.72 674.54,813.33 668.8,794.45C668.133,792.25 665.983,785.82 662.35,775.16C660.73,770.393 659.993,764.677 660.14,758.01C660.16,756.83 660.863,752.9 662.25,746.22C662.743,743.813 663.727,739.94 665.2,734.6C669.66,718.4 672.8,704.3 673.93,688.25C675.94,660.02 674.92,631.95 671.93,605.51C670.903,596.423 668.957,587.14 666.09,577.66C666.003,577.373 662.747,567.203 656.32,547.15C649.55,526 651.62,504.37 675.54,496.29C688.89,491.78 702.91,491.44 717.99,492.37C727.583,492.97 736.68,494.35 745.28,496.51C751.267,498.017 756.487,500.47 760.94,503.87C768.66,509.77 772.73,522.8 770.03,532.26C765.74,547.29 757.7,565.11 753.95,574.92C749.177,587.393 745.927,598.08 744.2,606.98C743.307,611.62 742.843,617.14 742.81,623.54Z" style="fill:rgb(130,196,216);fill-rule:nonzero;"/>
                </g>
                <g transform="matrix(1.893,0,0.564547,1.95757,12067.8,1195.76)">
                    <path d="M301.41,705.33C298.08,703.17 294.58,704.68 291.34,706.85C285.28,710.9 280.75,714.34 275.24,716.91C264.027,722.13 252.06,724.377 239.34,723.65C221.69,722.63 203.6,716.64 192.26,703.42C177.68,686.41 174.65,666.24 170.45,645.28C167.34,629.7 161.02,618.36 150.85,606.11C149.83,604.883 142.933,596.96 130.16,582.34C113.11,562.83 103.85,527.1 125.66,506.9C138.2,495.28 156.82,491.91 173.51,491.88C192.45,491.833 211.563,494.08 230.85,498.62C238.643,500.453 245.553,503.377 251.58,507.39C262.45,514.63 265.16,527.71 263.29,540.26C261.26,553.81 257.94,563.49 252.99,579.73C248.65,593.98 245.5,611.31 247.39,626.85C248.32,634.53 251.64,640.75 257.89,645.61C271.98,656.57 290.14,652.96 301.86,640.46C312.64,628.973 317.19,615.273 315.51,599.36C315.23,596.76 314.547,593.003 313.46,588.09C311.71,580.17 309.63,573.43 307.37,565.69C302.54,549.15 299.69,530.29 306.28,515.01C310.06,506.24 317.57,501.48 326.39,498.41C341.71,493.077 358.603,491.48 377.07,493.62C385.97,494.647 393.757,496.863 400.43,500.27C414.06,507.21 419.06,520.06 415.36,534.54C412.27,546.6 405.17,557.27 397.72,567.23C389.887,577.703 383.173,586.9 377.58,594.82C369.48,606.28 363.3,617.47 359.98,631.09C357.707,640.437 356.517,649.863 356.41,659.37C356.283,670.123 356.563,679.667 357.25,688C359.62,716.94 361.67,733.82 361.06,757.38C360.793,767.833 359.997,776.74 358.67,784.1C355.19,803.433 348.11,821.257 337.43,837.57C320.78,863.01 298.23,879.69 269.07,887.56C236.04,896.48 198.38,891.98 168.06,878.7C153.73,872.43 140.5,861.13 132.13,847.32C123.557,833.187 119.48,817.773 119.9,801.08C120.62,772.2 136.25,744.19 165.61,736.97C170.39,735.797 177.363,735.157 186.53,735.05C197.52,734.92 208.26,735.35 217.16,740.78C224.46,745.24 225.84,753.35 222.51,760.9C221.477,763.247 220.493,765.22 219.56,766.82C216.08,772.8 215.08,779.93 217.39,786.39C219.91,793.45 226.81,797.56 233.73,799.03C254.66,803.49 273.23,796.39 287.35,780.62C295.757,771.22 301.33,760.043 304.07,747.09C306.417,735.963 307.23,725.003 306.51,714.21C306.257,710.343 304.557,707.383 301.41,705.33Z" style="fill:rgb(130,196,216);fill-rule:nonzero;"/>
                </g>
                <g transform="matrix(5.79828,0,-2.40976e-15,5.79828,12009.5,-5850.55)">
                    <path d="M385.926,1417.81C385.968,1417.81 386.003,1417.82 386.032,1417.84C386.061,1417.87 386.076,1417.9 386.076,1417.94L386.076,1418.8C386.076,1418.84 386.061,1418.87 386.032,1418.9C386.003,1418.93 385.968,1418.94 385.926,1418.94L383.631,1418.94C383.59,1418.94 383.569,1418.96 383.569,1419L383.569,1425.53C383.569,1425.56 383.554,1425.6 383.525,1425.62C383.496,1425.65 383.461,1425.66 383.419,1425.66L382.272,1425.66C382.231,1425.66 382.195,1425.65 382.166,1425.62C382.137,1425.6 382.122,1425.56 382.122,1425.53L382.122,1419C382.122,1418.96 382.102,1418.94 382.06,1418.94L379.853,1418.94C379.811,1418.94 379.776,1418.93 379.747,1418.9C379.718,1418.87 379.703,1418.84 379.703,1418.8L379.703,1417.94C379.703,1417.9 379.718,1417.87 379.747,1417.84C379.776,1417.82 379.811,1417.81 379.853,1417.81L385.926,1417.81Z" style="fill:rgb(130,196,216);fill-rule:nonzero;"/>
                    <path d="M392.847,1417.89C392.889,1417.84 392.947,1417.81 393.022,1417.81L394.169,1417.81C394.211,1417.81 394.246,1417.82 394.275,1417.84C394.304,1417.87 394.319,1417.9 394.319,1417.94L394.319,1425.53C394.319,1425.56 394.304,1425.6 394.275,1425.62C394.246,1425.65 394.211,1425.66 394.169,1425.66L393.022,1425.66C392.98,1425.66 392.945,1425.65 392.916,1425.62C392.887,1425.6 392.872,1425.56 392.872,1425.53L392.872,1420.17C392.872,1420.15 392.862,1420.14 392.841,1420.13C392.82,1420.12 392.806,1420.13 392.797,1420.15L391.238,1422.31C391.197,1422.37 391.139,1422.4 391.064,1422.4L390.49,1422.4C390.415,1422.4 390.357,1422.37 390.316,1422.31L388.744,1420.16C388.736,1420.14 388.721,1420.13 388.701,1420.14C388.68,1420.15 388.67,1420.16 388.67,1420.18L388.67,1425.53C388.67,1425.56 388.655,1425.6 388.626,1425.62C388.597,1425.65 388.561,1425.66 388.52,1425.66L387.373,1425.66C387.331,1425.66 387.296,1425.65 387.267,1425.62C387.237,1425.6 387.223,1425.56 387.223,1425.53L387.223,1417.94C387.223,1417.9 387.237,1417.87 387.267,1417.84C387.296,1417.82 387.331,1417.81 387.373,1417.81L388.52,1417.81C388.595,1417.81 388.653,1417.84 388.694,1417.89L390.727,1420.67C390.744,1420.68 390.76,1420.69 390.777,1420.69C390.794,1420.69 390.806,1420.68 390.814,1420.67L392.847,1417.89Z" style="fill:rgb(130,196,216);fill-rule:nonzero;"/>
                </g>
            </g>
        </g>
    </g>
</svg>
